<svg id="svg" version="1.1" xmlns="http://www.w3.org/2000/svg" xmlns:xlink="http://www.w3.org/1999/xlink" width="400" height="400" viewBox="0, 0, 400,400"><g id="svgg"><path id="path0" d="M31.300 36.420 C 29.705 38.160,28.400 39.828,28.400 40.126 C 28.400 40.746,32.474 44.673,41.481 52.737 C 42.626 53.762,44.516 55.500,45.683 56.600 C 46.849 57.700,49.597 60.220,51.790 62.200 C 53.983 64.180,56.592 66.547,57.588 67.459 C 58.585 68.372,60.551 70.172,61.957 71.459 C 63.363 72.747,65.277 74.520,66.210 75.400 C 67.143 76.280,69.322 78.277,71.053 79.837 C 75.273 83.641,87.887 95.151,89.449 96.623 C 91.072 98.152,95.020 101.661,96.796 103.154 L 98.192 104.328 96.696 104.608 C 95.786 104.779,95.200 105.116,95.200 105.468 C 95.200 105.787,95.020 105.936,94.800 105.800 C 94.580 105.664,94.400 105.758,94.400 106.010 C 94.400 106.261,94.175 106.390,93.900 106.295 C 93.225 106.064,90.198 107.384,89.137 108.373 C 88.665 108.813,88.126 109.078,87.939 108.963 C 87.753 108.847,87.600 109.044,87.600 109.400 C 87.600 109.756,87.420 109.936,87.200 109.800 C 86.980 109.664,86.800 109.751,86.800 109.994 C 86.800 110.237,86.575 110.406,86.300 110.370 C 85.247 110.233,84.800 110.421,84.800 111.000 C 84.800 111.727,84.146 111.796,83.865 111.100 C 83.751 110.817,83.649 110.922,83.632 111.343 C 83.611 111.833,83.396 112.007,83.000 111.855 C 82.670 111.729,82.400 111.770,82.400 111.948 C 82.400 112.126,81.682 112.615,80.805 113.036 C 79.927 113.456,79.207 113.982,79.205 114.204 C 79.198 114.768,77.649 115.678,77.184 115.390 C 76.973 115.260,76.800 115.354,76.800 115.600 C 76.800 115.846,76.639 115.948,76.442 115.826 C 76.245 115.704,75.976 115.885,75.845 116.228 C 75.713 116.570,75.424 116.739,75.203 116.602 C 74.981 116.465,74.800 116.543,74.800 116.776 C 74.800 117.009,74.524 117.200,74.187 117.200 C 73.851 117.200,73.472 117.469,73.346 117.798 C 73.219 118.126,72.954 118.295,72.755 118.172 C 72.557 118.050,72.291 118.219,72.164 118.549 C 72.037 118.879,71.679 119.052,71.367 118.932 C 71.029 118.802,70.800 118.963,70.800 119.330 C 70.800 119.669,70.395 120.070,69.900 120.220 C 69.405 120.371,68.666 120.788,68.258 121.147 C 67.850 121.506,67.400 121.782,67.258 121.759 C 66.727 121.675,65.600 122.613,65.600 123.139 C 65.600 123.467,65.353 123.591,64.985 123.450 C 64.635 123.315,64.272 123.469,64.142 123.807 C 64.017 124.133,63.683 124.400,63.400 124.400 C 63.116 124.400,62.347 124.902,61.690 125.516 C 61.033 126.130,60.282 126.561,60.021 126.474 C 59.761 126.387,59.445 126.705,59.321 127.180 C 59.185 127.701,58.877 127.962,58.547 127.835 C 58.245 127.719,58.000 127.876,58.000 128.186 C 58.000 128.494,57.640 128.860,57.200 129.000 C 56.759 129.140,56.217 129.595,55.993 130.012 C 55.770 130.429,55.366 130.690,55.094 130.592 C 54.822 130.494,54.150 130.787,53.600 131.242 C 53.050 131.697,52.870 131.935,53.200 131.772 C 53.530 131.608,53.350 131.915,52.800 132.455 C 52.250 132.994,51.555 133.428,51.255 133.418 C 50.956 133.408,50.506 133.756,50.255 134.191 C 49.610 135.311,48.720 135.944,48.117 135.713 C 47.825 135.601,47.600 135.798,47.600 136.167 C 47.600 136.526,47.162 136.986,46.627 137.190 C 46.092 137.393,45.248 138.109,44.752 138.780 C 43.890 139.945,42.711 140.581,43.451 139.481 C 43.643 139.196,43.396 139.421,42.902 139.981 C 42.408 140.541,42.003 141.151,42.002 141.336 C 41.998 141.941,40.216 143.150,39.954 142.726 C 39.648 142.230,36.150 146.669,36.329 147.326 C 36.421 147.667,36.315 147.660,35.949 147.300 C 35.232 146.596,34.668 146.678,34.962 147.445 C 35.127 147.876,35.035 148.022,34.680 147.886 C 34.388 147.774,33.803 148.203,33.375 148.840 C 32.949 149.477,32.448 149.998,32.262 149.999 C 31.697 150.001,22.213 159.767,22.314 160.243 C 22.366 160.486,21.699 161.177,20.831 161.779 C 19.963 162.380,19.336 163.088,19.437 163.353 C 19.539 163.617,19.068 164.243,18.391 164.744 C 17.714 165.244,16.993 166.092,16.790 166.627 C 16.586 167.162,16.165 167.600,15.853 167.600 C 15.541 167.600,15.178 167.879,15.047 168.221 C 14.890 168.631,14.977 168.755,15.305 168.586 C 15.577 168.446,15.350 168.696,14.800 169.142 C 14.250 169.589,13.778 170.145,13.750 170.377 C 13.723 170.610,13.678 170.980,13.650 171.200 C 13.623 171.420,13.330 171.600,13.000 171.600 C 12.670 171.600,12.400 171.851,12.400 172.157 C 12.400 172.464,12.119 172.822,11.775 172.954 C 11.431 173.086,11.259 173.372,11.393 173.589 C 11.755 174.174,10.868 175.600,10.143 175.600 C 9.765 175.600,9.601 175.826,9.732 176.167 C 9.852 176.479,9.691 176.833,9.375 176.954 C 9.059 177.076,8.800 177.451,8.800 177.787 C 8.800 178.124,8.542 178.400,8.227 178.400 C 7.637 178.400,7.201 179.353,7.015 181.046 C 6.956 181.577,6.552 182.324,6.116 182.706 C 5.680 183.088,4.999 184.390,4.603 185.600 C 4.206 186.810,3.684 187.932,3.441 188.094 C 3.185 188.264,3.168 188.393,3.400 188.400 C 3.667 188.408,3.667 188.510,3.400 188.706 C 2.759 189.177,1.573 192.000,2.016 192.000 C 2.240 192.000,2.172 192.398,1.861 192.900 C 1.555 193.395,1.088 194.970,0.824 196.400 C 0.560 197.830,0.283 199.315,0.209 199.700 C 0.136 200.084,0.221 200.490,0.400 200.600 C 0.579 200.710,0.632 201.155,0.519 201.587 C 0.322 202.343,1.049 206.174,1.547 207.000 C 1.679 207.220,1.791 207.722,1.794 208.115 C 1.797 208.508,2.048 208.982,2.351 209.170 C 2.654 209.357,2.779 209.711,2.628 209.955 C 2.476 210.200,2.521 210.400,2.728 210.400 C 2.934 210.400,3.506 211.480,4.000 212.800 C 4.494 214.120,5.066 215.200,5.272 215.200 C 5.479 215.200,5.536 215.380,5.400 215.600 C 5.264 215.820,5.308 216.000,5.497 216.000 C 5.687 216.000,6.462 217.215,7.221 218.700 C 7.979 220.185,8.735 221.460,8.900 221.533 C 9.065 221.607,9.200 221.927,9.200 222.246 C 9.200 222.564,9.459 222.924,9.775 223.046 C 10.091 223.167,10.261 223.498,10.152 223.781 C 10.039 224.076,10.347 224.402,10.877 224.547 C 11.645 224.757,11.699 224.866,11.200 225.194 C 10.692 225.528,10.712 225.589,11.333 225.594 C 11.738 225.597,11.992 225.823,11.901 226.097 C 11.810 226.370,12.110 226.785,12.568 227.019 C 13.025 227.253,13.347 227.749,13.282 228.122 C 13.213 228.522,13.423 228.800,13.795 228.800 C 14.142 228.800,14.543 229.107,14.687 229.483 C 14.993 230.281,16.224 231.793,17.500 232.937 C 17.995 233.381,18.400 234.029,18.400 234.376 C 18.400 234.723,18.772 235.240,19.227 235.524 C 19.681 235.808,19.982 236.253,19.896 236.513 C 19.809 236.774,20.422 237.482,21.258 238.088 C 22.196 238.768,22.695 239.408,22.560 239.759 C 22.425 240.112,22.759 240.532,23.441 240.864 C 24.046 241.159,24.888 242.030,25.313 242.800 C 26.114 244.252,33.436 251.600,34.081 251.600 C 34.282 251.600,34.319 251.808,34.162 252.062 C 33.985 252.348,34.052 252.415,34.339 252.238 C 34.605 252.074,35.442 252.558,36.301 253.372 C 37.125 254.154,37.935 254.795,38.100 254.797 C 38.265 254.798,38.400 255.132,38.400 255.538 C 38.400 256.368,39.722 257.745,40.129 257.338 C 40.367 257.099,41.585 258.263,43.200 260.274 C 43.530 260.684,43.665 260.845,43.500 260.630 C 43.335 260.416,43.200 260.082,43.200 259.890 C 43.200 259.346,45.553 261.335,45.578 261.900 C 45.590 262.175,45.857 262.400,46.171 262.400 C 46.485 262.400,47.070 262.817,47.471 263.327 C 47.872 263.837,48.290 264.256,48.400 264.259 C 48.992 264.276,50.401 265.296,50.409 265.714 C 50.413 265.981,50.998 266.472,51.709 266.804 C 52.419 267.136,52.957 267.624,52.905 267.889 C 52.849 268.174,53.063 268.274,53.429 268.134 C 53.836 267.977,54.121 268.178,54.263 268.720 C 54.393 269.218,54.700 269.460,55.036 269.331 C 55.343 269.213,55.709 269.419,55.851 269.789 C 55.993 270.159,56.535 270.623,57.055 270.821 C 57.575 271.018,58.000 271.449,58.000 271.778 C 58.000 272.119,58.235 272.285,58.547 272.165 C 58.879 272.038,59.205 272.319,59.374 272.877 C 59.530 273.391,59.742 273.588,59.853 273.322 C 60.117 272.689,61.200 273.126,61.200 273.866 C 61.200 274.186,61.369 274.343,61.575 274.215 C 61.782 274.088,62.097 274.212,62.275 274.492 C 62.454 274.771,63.267 275.339,64.081 275.753 C 64.896 276.167,65.924 276.842,66.365 277.253 C 66.806 277.664,67.335 278.000,67.540 278.000 C 67.746 278.000,68.022 278.281,68.154 278.625 C 68.286 278.969,68.555 279.151,68.752 279.030 C 69.210 278.747,70.087 279.780,69.709 280.158 C 69.552 280.314,69.734 280.324,70.112 280.178 C 70.520 280.022,70.800 280.104,70.800 280.381 C 70.800 280.637,70.957 280.750,71.150 280.631 C 71.342 280.512,71.943 280.826,72.485 281.329 C 73.028 281.832,73.680 282.173,73.936 282.088 C 74.191 282.003,74.400 282.229,74.400 282.590 C 74.400 282.952,74.590 283.130,74.821 282.987 C 75.053 282.844,75.579 283.115,75.991 283.590 C 76.403 284.064,76.798 284.414,76.870 284.368 C 77.267 284.108,78.800 284.940,78.800 285.414 C 78.800 285.748,79.043 285.882,79.400 285.745 C 79.730 285.618,80.000 285.724,80.000 285.981 C 80.000 286.237,80.180 286.336,80.400 286.200 C 80.620 286.064,80.800 286.145,80.800 286.380 C 80.800 286.614,81.520 287.095,82.400 287.447 C 83.280 287.799,84.000 288.258,84.000 288.467 C 84.000 288.676,84.161 288.748,84.358 288.626 C 84.555 288.504,84.818 288.671,84.943 288.996 C 85.072 289.331,85.435 289.485,85.785 289.350 C 86.123 289.221,86.400 289.324,86.400 289.581 C 86.400 289.837,86.580 289.936,86.800 289.800 C 87.020 289.664,87.200 289.754,87.200 290.000 C 87.200 290.246,87.361 290.348,87.558 290.226 C 87.755 290.104,88.020 290.275,88.147 290.606 C 88.274 290.937,88.518 291.173,88.689 291.132 C 89.185 291.011,92.000 292.512,92.000 292.898 C 92.000 293.090,92.168 293.143,92.374 293.016 C 92.580 292.889,93.211 293.248,93.778 293.814 C 94.344 294.380,94.985 294.733,95.203 294.598 C 95.422 294.463,95.600 294.529,95.600 294.745 C 95.600 294.960,96.184 295.265,96.898 295.422 C 98.379 295.747,100.885 296.843,101.236 297.320 C 101.366 297.496,101.861 297.669,102.336 297.705 C 102.811 297.741,103.200 297.942,103.200 298.152 C 103.200 298.362,103.311 298.422,103.448 298.286 C 103.584 298.150,103.952 298.295,104.266 298.608 C 104.579 298.922,105.548 299.371,106.418 299.605 C 107.288 299.839,108.000 300.216,108.000 300.442 C 108.000 300.669,108.341 300.746,108.758 300.613 C 109.175 300.481,109.761 300.618,110.061 300.919 C 110.362 301.219,110.831 301.390,111.104 301.299 C 111.377 301.208,111.600 301.358,111.600 301.633 C 111.600 301.908,111.707 302.026,111.838 301.895 C 111.969 301.764,112.676 301.993,113.408 302.405 C 114.140 302.816,115.382 303.273,116.166 303.420 C 116.951 303.567,117.522 303.803,117.436 303.944 C 117.349 304.085,117.838 304.221,118.522 304.247 C 119.205 304.272,119.829 304.487,119.908 304.724 C 119.987 304.961,120.310 305.056,120.626 304.935 C 120.942 304.814,121.200 304.908,121.200 305.145 C 121.200 305.381,121.470 305.471,121.800 305.345 C 122.130 305.218,122.400 305.333,122.400 305.600 C 122.400 305.867,122.670 305.982,123.000 305.855 C 123.330 305.729,123.600 305.807,123.600 306.030 C 123.600 306.253,123.825 306.400,124.100 306.356 C 124.375 306.313,125.269 306.575,126.087 306.939 C 126.905 307.302,128.041 307.600,128.611 307.600 C 129.181 307.600,129.564 307.735,129.463 307.900 C 129.362 308.065,129.820 308.220,130.482 308.245 C 131.143 308.269,131.815 308.500,131.974 308.758 C 132.134 309.016,132.565 309.112,132.932 308.971 C 133.321 308.822,133.600 308.909,133.600 309.181 C 133.600 309.437,133.788 309.531,134.018 309.389 C 134.247 309.247,134.689 309.342,135.000 309.600 C 135.311 309.858,135.753 309.953,135.982 309.811 C 136.212 309.669,136.400 309.763,136.400 310.019 C 136.400 310.286,136.679 310.379,137.051 310.236 C 137.409 310.099,137.935 310.180,138.221 310.417 C 138.506 310.654,139.166 310.894,139.687 310.949 C 140.208 311.005,140.806 311.153,141.017 311.279 C 141.228 311.405,142.345 311.636,143.500 311.792 C 144.656 311.948,145.496 312.245,145.367 312.454 C 145.228 312.678,145.555 312.726,146.166 312.573 C 146.820 312.409,147.200 312.479,147.200 312.764 C 147.200 313.046,147.576 313.121,148.200 312.964 C 148.856 312.800,149.200 312.881,149.200 313.199 C 149.200 313.484,149.470 313.582,149.851 313.436 C 150.209 313.299,150.746 313.389,151.046 313.638 C 151.345 313.886,151.862 313.985,152.195 313.857 C 152.528 313.730,152.800 313.763,152.800 313.932 C 152.800 314.248,160.284 315.624,161.924 315.608 C 162.432 315.604,162.749 315.760,162.628 315.955 C 162.508 316.150,162.767 316.403,163.205 316.517 C 163.643 316.632,163.900 316.562,163.777 316.363 C 163.654 316.163,164.103 316.000,164.776 316.000 C 165.449 316.000,166.000 316.169,166.000 316.375 C 166.000 316.581,166.630 316.647,167.400 316.523 C 168.358 316.367,168.800 316.449,168.800 316.783 C 168.800 317.130,169.261 317.192,170.400 317.000 C 171.537 316.808,172.000 316.870,172.000 317.216 C 172.000 317.561,172.476 317.626,173.645 317.439 C 174.677 317.274,175.497 317.349,175.847 317.639 C 176.192 317.925,177.013 318.004,178.002 317.846 C 179.091 317.672,179.600 317.738,179.600 318.052 C 179.600 318.377,180.305 318.440,181.981 318.265 C 183.551 318.101,184.457 318.168,184.638 318.461 C 184.821 318.758,185.962 318.835,188.056 318.691 C 189.785 318.573,191.300 318.639,191.423 318.838 C 191.720 319.318,210.684 319.311,210.981 318.831 C 211.107 318.627,212.518 318.561,214.148 318.685 C 216.022 318.826,217.182 318.753,217.349 318.483 C 217.510 318.223,218.438 318.144,219.751 318.280 C 221.001 318.409,221.994 318.334,222.139 318.099 C 222.278 317.874,223.183 317.787,224.194 317.900 C 225.400 318.036,226.000 317.952,226.000 317.647 C 226.000 317.338,226.518 317.273,227.600 317.446 C 228.730 317.627,229.200 317.559,229.200 317.216 C 229.200 316.870,229.663 316.808,230.800 317.000 C 231.939 317.192,232.400 317.130,232.400 316.783 C 232.400 316.449,232.842 316.367,233.800 316.523 C 234.666 316.663,235.200 316.587,235.200 316.324 C 235.200 316.049,235.780 315.991,236.829 316.158 C 237.900 316.329,238.372 316.278,238.206 316.009 C 238.057 315.768,238.405 315.600,239.053 315.600 C 241.007 315.600,247.600 314.282,247.600 313.892 C 247.600 313.684,248.050 313.626,248.600 313.764 C 249.186 313.911,249.600 313.843,249.600 313.600 C 249.600 313.357,250.014 313.289,250.600 313.436 C 251.259 313.601,251.600 313.520,251.600 313.197 C 251.600 312.904,251.922 312.791,252.400 312.916 C 252.840 313.031,253.200 312.942,253.200 312.719 C 253.200 312.486,253.625 312.420,254.200 312.564 C 254.777 312.709,255.200 312.643,255.200 312.408 C 255.200 312.183,255.481 312.000,255.824 312.000 C 256.167 312.000,256.337 312.178,256.203 312.395 C 256.063 312.622,256.223 312.689,256.577 312.554 C 256.917 312.423,257.110 312.178,257.005 312.009 C 256.901 311.839,257.712 311.582,258.808 311.437 C 259.903 311.291,260.800 310.979,260.800 310.743 C 260.800 310.507,261.064 310.416,261.387 310.540 C 261.710 310.664,262.076 310.601,262.200 310.400 C 262.324 310.199,262.672 310.129,262.972 310.245 C 263.273 310.360,263.633 310.270,263.772 310.045 C 263.912 309.819,264.290 309.736,264.613 309.860 C 264.936 309.984,265.200 309.867,265.200 309.600 C 265.200 309.333,265.464 309.216,265.787 309.340 C 266.110 309.464,266.476 309.401,266.600 309.200 C 266.724 308.999,267.090 308.936,267.413 309.060 C 267.736 309.184,268.000 309.065,268.000 308.796 C 268.000 308.504,268.322 308.391,268.800 308.516 C 269.240 308.631,269.600 308.543,269.600 308.320 C 269.600 308.097,269.870 308.018,270.200 308.145 C 270.530 308.271,270.800 308.221,270.800 308.032 C 270.800 307.843,271.472 307.563,272.293 307.409 C 273.114 307.255,274.149 306.927,274.593 306.681 C 275.037 306.434,275.625 306.278,275.900 306.334 C 276.175 306.389,276.400 306.253,276.400 306.030 C 276.400 305.807,276.670 305.729,277.000 305.855 C 277.330 305.982,277.600 305.867,277.600 305.600 C 277.600 305.333,277.870 305.218,278.200 305.345 C 278.530 305.471,278.800 305.381,278.800 305.145 C 278.800 304.908,279.058 304.814,279.374 304.935 C 279.690 305.056,280.013 304.961,280.092 304.724 C 280.171 304.487,280.812 304.272,281.517 304.247 C 282.222 304.221,282.799 304.073,282.799 303.918 C 282.800 303.763,283.424 303.519,284.186 303.376 C 284.948 303.233,285.778 302.867,286.031 302.563 C 286.284 302.258,286.650 302.107,286.845 302.228 C 287.040 302.349,287.200 302.246,287.200 302.000 C 287.200 301.754,287.381 301.665,287.603 301.802 C 287.825 301.939,288.298 301.759,288.655 301.402 C 289.011 301.046,289.550 300.849,289.852 300.964 C 290.153 301.080,290.400 300.981,290.400 300.745 C 290.400 300.508,290.670 300.418,291.000 300.545 C 291.330 300.671,291.600 300.630,291.600 300.452 C 291.600 300.275,292.590 299.793,293.800 299.382 C 295.010 298.971,296.000 298.481,296.000 298.294 C 296.000 298.106,296.180 298.064,296.400 298.200 C 296.620 298.336,296.800 298.246,296.800 298.000 C 296.800 297.754,296.965 297.655,297.166 297.779 C 297.367 297.903,297.595 297.816,297.672 297.585 C 297.749 297.354,298.214 297.134,298.706 297.097 C 299.198 297.060,299.600 296.895,299.600 296.731 C 299.600 296.567,300.725 296.081,302.100 295.651 C 303.475 295.222,304.890 294.755,305.245 294.613 C 305.866 294.366,306.988 295.271,313.835 301.537 C 315.806 303.341,317.680 305.036,321.864 308.800 C 322.965 309.790,324.855 311.500,326.064 312.600 C 329.144 315.402,331.824 317.808,334.975 320.600 C 336.465 321.920,338.260 323.540,338.964 324.200 C 339.668 324.860,341.574 326.570,343.198 328.000 C 350.693 334.599,354.248 337.792,357.263 340.630 C 360.420 343.602,360.748 343.630,363.107 341.136 C 367.396 336.601,367.614 335.908,365.300 334.165 C 364.475 333.543,363.080 332.366,362.200 331.548 C 361.320 330.730,356.730 326.599,352.000 322.369 C 347.270 318.138,341.983 313.400,340.252 311.839 C 338.520 310.277,336.894 308.877,336.637 308.727 C 336.380 308.578,335.263 307.588,334.155 306.527 C 333.047 305.467,331.248 303.790,330.157 302.800 C 329.067 301.810,326.470 299.440,324.387 297.534 C 322.304 295.627,320.128 293.697,319.551 293.245 C 318.975 292.793,317.868 291.788,317.091 291.011 C 316.315 290.235,315.392 289.600,315.040 289.600 C 313.543 289.600,316.425 287.609,319.300 286.657 C 319.685 286.529,320.000 286.245,320.000 286.025 C 320.000 285.805,320.270 285.729,320.600 285.855 C 320.964 285.995,321.200 285.857,321.200 285.504 C 321.200 285.183,321.920 284.597,322.800 284.200 C 323.680 283.803,324.400 283.340,324.400 283.171 C 324.400 283.002,324.952 282.742,325.627 282.594 C 326.302 282.446,326.951 282.073,327.069 281.765 C 327.187 281.457,327.445 281.304,327.642 281.426 C 327.839 281.548,328.000 281.471,328.000 281.256 C 328.000 280.862,330.729 279.007,331.315 279.002 C 331.488 279.001,331.782 278.752,331.970 278.449 C 332.157 278.146,332.511 278.021,332.755 278.172 C 333.000 278.324,333.200 278.205,333.200 277.910 C 333.200 277.286,335.364 275.897,335.744 276.277 C 335.885 276.418,336.000 276.233,336.000 275.867 C 336.000 275.467,336.320 275.200,336.800 275.200 C 337.244 275.200,337.600 274.933,337.600 274.600 C 337.600 274.264,337.957 274.000,338.413 274.000 C 338.859 274.000,339.333 273.720,339.464 273.377 C 339.596 273.034,339.941 272.845,340.231 272.957 C 340.562 273.083,340.678 272.949,340.543 272.596 C 340.404 272.234,340.686 271.943,341.335 271.781 C 341.889 271.642,342.439 271.274,342.559 270.964 C 342.678 270.654,343.120 270.400,343.541 270.400 C 343.970 270.400,344.399 270.049,344.516 269.600 C 344.631 269.160,345.012 268.800,345.363 268.800 C 345.713 268.800,346.000 268.642,346.000 268.449 C 346.000 268.255,346.540 267.873,347.200 267.600 C 347.860 267.327,348.400 266.858,348.400 266.559 C 348.400 266.260,348.850 265.902,349.400 265.764 C 349.950 265.626,350.400 265.283,350.400 265.002 C 350.400 264.721,351.030 264.192,351.800 263.827 C 352.570 263.461,353.200 262.920,353.200 262.624 C 353.200 262.158,354.055 261.543,354.854 261.435 C 354.994 261.416,355.624 260.905,356.254 260.299 C 359.553 257.130,361.624 255.300,362.928 254.400 C 363.726 253.850,364.383 253.217,364.389 252.994 C 364.406 252.382,368.000 249.020,368.000 249.616 C 368.000 249.901,368.133 250.001,368.295 249.838 C 368.457 249.676,368.592 249.261,368.595 248.917 C 368.598 248.572,368.950 248.090,369.378 247.845 C 369.806 247.600,370.515 247.085,370.954 246.700 C 371.392 246.315,371.908 246.000,372.099 246.000 C 372.291 246.000,372.331 245.812,372.189 245.582 C 371.807 244.963,372.831 243.926,373.552 244.203 C 373.895 244.335,374.047 244.314,373.890 244.157 C 373.733 244.000,373.964 243.620,374.403 243.313 C 374.841 243.006,375.200 242.517,375.200 242.226 C 375.200 241.936,375.468 241.476,375.796 241.204 C 376.123 240.932,376.275 240.522,376.134 240.293 C 375.991 240.062,376.068 239.995,376.306 240.142 C 376.542 240.288,377.383 239.731,378.174 238.904 C 378.966 238.077,380.151 236.850,380.807 236.178 C 381.463 235.506,382.000 234.735,382.000 234.464 C 382.000 234.194,382.630 233.601,383.400 233.147 C 384.170 232.693,384.800 232.238,384.800 232.137 C 384.800 232.036,384.597 232.078,384.348 232.232 C 383.822 232.557,383.930 232.275,385.010 230.503 C 385.444 229.789,386.034 229.204,386.321 229.203 C 386.607 229.201,387.030 228.660,387.260 228.000 C 387.490 227.341,387.838 226.900,388.034 227.021 C 388.230 227.142,388.308 227.007,388.207 226.721 C 387.982 226.086,388.748 225.045,389.704 224.686 C 390.091 224.541,390.386 224.282,390.360 224.111 C 390.273 223.530,390.892 222.000,391.215 222.000 C 391.392 222.000,391.655 221.459,391.801 220.797 C 391.946 220.135,392.404 219.412,392.818 219.191 C 393.232 218.969,393.477 218.544,393.362 218.245 C 393.248 217.947,393.426 217.431,393.758 217.099 C 394.090 216.767,394.250 216.384,394.114 216.248 C 393.978 216.111,394.063 216.000,394.302 216.000 C 394.542 216.000,394.941 215.386,395.188 214.635 C 395.436 213.885,395.919 213.163,396.262 213.032 C 396.700 212.864,396.811 212.497,396.635 211.796 C 396.474 211.154,396.553 210.800,396.859 210.800 C 397.120 210.800,397.215 210.682,397.070 210.537 C 396.925 210.392,396.982 210.063,397.196 209.805 C 397.409 209.548,397.651 208.991,397.732 208.569 C 397.813 208.146,398.006 207.510,398.161 207.156 C 398.316 206.802,398.499 206.082,398.568 205.556 C 398.638 205.030,398.853 204.240,399.047 203.800 C 400.049 201.528,399.003 191.406,397.714 190.912 C 397.404 190.793,397.273 190.399,397.406 189.982 C 397.549 189.530,397.367 189.101,396.918 188.837 C 396.293 188.470,396.278 188.362,396.800 188.013 C 397.308 187.674,397.286 187.611,396.657 187.606 C 396.151 187.602,395.990 187.402,396.153 186.979 C 396.381 186.384,396.175 186.006,394.775 184.446 C 394.431 184.063,394.216 183.552,394.296 183.311 C 394.377 183.069,394.113 182.540,393.709 182.136 C 392.569 180.992,391.726 179.802,392.300 180.147 C 392.575 180.312,392.800 180.257,392.800 180.024 C 392.800 179.791,392.569 179.600,392.288 179.600 C 392.006 179.600,391.552 179.105,391.278 178.500 C 390.026 175.728,389.143 174.400,388.554 174.400 C 388.188 174.400,388.001 174.174,388.117 173.871 C 388.229 173.581,387.971 173.125,387.545 172.858 C 387.118 172.592,386.877 172.199,387.009 171.986 C 387.140 171.773,386.769 171.416,386.183 171.194 C 385.482 170.927,385.197 170.586,385.347 170.194 C 385.472 169.867,385.354 169.600,385.084 169.600 C 384.813 169.600,384.356 169.221,384.067 168.758 C 383.778 168.295,383.734 168.036,383.970 168.182 C 384.207 168.328,384.400 168.269,384.400 168.051 C 384.400 167.832,384.053 167.544,383.629 167.409 C 383.205 167.275,382.491 166.543,382.043 165.782 C 381.594 165.022,380.996 164.397,380.713 164.394 C 380.339 164.389,380.355 164.289,380.774 164.024 C 381.226 163.739,381.042 163.480,379.917 162.816 C 379.129 162.351,378.258 161.423,377.980 160.752 C 377.702 160.081,377.053 159.372,376.538 159.176 C 376.022 158.980,375.600 158.582,375.600 158.292 C 375.600 157.700,372.465 154.400,370.251 152.661 C 369.453 152.034,368.800 151.375,368.800 151.197 C 368.800 150.631,364.406 146.273,362.948 145.393 C 362.178 144.928,361.320 144.110,361.041 143.574 C 360.763 143.038,360.324 142.645,360.067 142.700 C 359.810 142.755,359.600 142.638,359.600 142.440 C 359.600 142.241,358.959 141.701,358.177 141.239 C 357.394 140.777,356.852 140.240,356.972 140.045 C 357.350 139.433,356.056 138.637,354.347 138.431 C 354.207 138.414,353.999 138.041,353.885 137.602 C 353.770 137.163,353.344 136.678,352.938 136.523 C 352.532 136.369,351.878 135.836,351.485 135.339 C 351.092 134.843,350.531 134.528,350.238 134.641 C 349.929 134.759,349.614 134.496,349.488 134.014 C 349.367 133.551,348.724 132.992,348.035 132.752 C 347.356 132.516,346.800 132.039,346.800 131.694 C 346.800 131.349,346.681 131.186,346.536 131.331 C 346.391 131.476,346.012 131.224,345.694 130.771 C 345.377 130.317,344.881 130.037,344.592 130.148 C 344.303 130.259,343.972 130.104,343.857 129.805 C 343.742 129.505,342.982 128.944,342.168 128.558 C 341.354 128.172,340.599 127.518,340.491 127.105 C 340.383 126.692,340.081 126.437,339.819 126.537 C 339.557 126.638,339.129 126.378,338.868 125.960 C 338.607 125.542,338.125 125.200,337.797 125.200 C 337.468 125.200,337.200 125.020,337.200 124.800 C 337.200 124.580,336.949 124.400,336.643 124.400 C 336.336 124.400,335.978 124.119,335.846 123.775 C 335.714 123.431,335.443 123.250,335.245 123.372 C 335.046 123.495,334.776 123.315,334.645 122.972 C 334.513 122.630,334.233 122.456,334.023 122.586 C 333.812 122.716,333.439 122.446,333.193 121.987 C 332.947 121.527,332.540 121.220,332.288 121.304 C 332.035 121.388,331.418 121.013,330.915 120.470 C 330.412 119.927,329.995 119.644,329.988 119.842 C 329.981 120.039,329.790 119.881,329.563 119.492 C 329.336 119.102,328.994 118.880,328.803 118.998 C 328.612 119.116,327.962 118.756,327.359 118.197 C 326.756 117.638,325.843 117.076,325.331 116.947 C 324.819 116.818,324.400 116.463,324.400 116.157 C 324.400 115.850,324.209 115.600,323.976 115.600 C 323.743 115.600,323.665 115.781,323.802 116.003 C 323.946 116.236,323.619 116.209,323.025 115.939 C 322.461 115.682,322.000 115.220,322.000 114.912 C 322.000 114.605,321.828 114.459,321.619 114.588 C 321.409 114.718,320.863 114.504,320.406 114.112 C 319.948 113.720,319.445 113.384,319.287 113.365 C 318.486 113.269,317.600 112.655,317.600 112.196 C 317.600 111.911,317.060 111.490,316.400 111.260 C 315.740 111.030,315.200 110.922,315.200 111.021 C 315.200 111.119,314.826 110.826,314.369 110.369 C 313.912 109.912,313.282 109.636,312.969 109.757 C 312.656 109.877,312.400 109.822,312.400 109.636 C 312.400 109.450,311.862 109.074,311.205 108.802 C 310.548 108.530,310.097 108.167,310.202 107.996 C 310.422 107.641,307.476 106.371,306.055 106.208 C 305.535 106.149,304.952 105.853,304.761 105.550 C 304.569 105.248,304.409 105.148,304.406 105.329 C 304.403 105.509,304.117 105.374,303.771 105.029 C 303.426 104.683,302.905 104.400,302.614 104.400 C 302.323 104.400,301.977 104.118,301.845 103.772 C 301.685 103.355,301.335 103.230,300.802 103.399 C 300.323 103.551,300.000 103.472,300.000 103.203 C 300.000 102.956,299.820 102.864,299.600 103.000 C 299.380 103.136,299.200 103.062,299.200 102.836 C 299.200 102.610,298.948 102.522,298.641 102.640 C 298.333 102.758,297.748 102.500,297.341 102.068 C 296.933 101.635,295.651 101.002,294.490 100.659 C 293.330 100.317,292.091 99.748,291.738 99.396 C 291.386 99.043,290.827 98.857,290.498 98.984 C 290.168 99.110,289.679 98.914,289.412 98.549 C 289.144 98.183,288.492 97.846,287.963 97.800 C 287.433 97.754,286.331 97.421,285.513 97.058 C 284.695 96.696,283.739 96.400,283.389 96.400 C 283.026 96.400,282.870 96.210,283.026 95.957 C 283.211 95.659,283.022 95.603,282.450 95.784 C 281.957 95.941,281.600 95.880,281.600 95.640 C 281.600 95.412,281.330 95.329,281.000 95.455 C 280.670 95.582,280.400 95.471,280.400 95.209 C 280.400 94.948,280.177 94.808,279.904 94.899 C 279.631 94.990,279.157 94.814,278.852 94.509 C 278.547 94.204,278.019 94.060,277.680 94.191 C 277.341 94.321,276.929 94.209,276.764 93.942 C 276.599 93.675,276.135 93.409,275.732 93.350 C 274.013 93.102,271.600 92.267,271.600 91.921 C 271.600 91.715,271.240 91.660,270.800 91.800 C 270.335 91.948,270.000 91.872,270.000 91.619 C 270.000 91.356,269.607 91.283,269.000 91.436 C 268.361 91.596,268.000 91.518,268.000 91.220 C 268.000 90.963,267.819 90.865,267.597 91.002 C 267.375 91.139,266.897 90.954,266.534 90.591 C 266.155 90.212,265.480 90.006,264.951 90.107 C 264.443 90.204,263.977 90.138,263.914 89.959 C 263.851 89.781,262.360 89.322,260.600 88.938 C 258.840 88.555,257.162 88.007,256.871 87.721 C 256.245 87.104,255.850 87.033,256.200 87.600 C 256.336 87.820,256.167 88.000,255.824 88.000 C 255.481 88.000,255.200 87.808,255.200 87.573 C 255.200 87.328,254.859 87.254,254.400 87.400 C 253.960 87.540,253.600 87.483,253.600 87.274 C 253.600 87.064,253.240 86.799,252.800 86.684 C 252.342 86.564,251.997 86.673,251.994 86.937 C 251.990 87.218,251.848 87.180,251.634 86.842 C 251.421 86.506,250.999 86.392,250.572 86.555 C 250.183 86.705,249.749 86.640,249.608 86.412 C 249.358 86.008,246.812 85.488,244.800 85.429 C 244.250 85.413,243.702 85.270,243.583 85.110 C 243.463 84.951,242.074 84.701,240.494 84.554 C 238.915 84.407,237.721 84.128,237.841 83.934 C 237.963 83.737,237.342 83.696,236.429 83.842 C 235.301 84.022,234.800 83.958,234.800 83.633 C 234.800 83.313,234.354 83.247,233.400 83.426 C 232.412 83.612,232.000 83.543,232.000 83.193 C 232.000 82.839,231.543 82.771,230.400 82.954 C 229.317 83.127,228.800 83.062,228.800 82.752 C 228.800 82.450,228.262 82.367,227.220 82.507 C 226.351 82.623,225.586 82.560,225.520 82.366 C 225.454 82.172,223.557 81.965,221.304 81.907 C 219.051 81.848,217.206 81.650,217.204 81.467 C 217.202 81.284,215.940 81.194,214.399 81.267 C 212.858 81.340,211.552 81.260,211.495 81.089 C 211.259 80.373,180.400 80.834,180.400 81.554 C 180.400 81.693,179.568 81.740,178.551 81.659 C 177.294 81.559,176.591 81.686,176.357 82.056 C 176.167 82.355,176.009 82.411,176.006 82.180 C 175.998 81.633,173.109 81.955,172.670 82.552 C 172.439 82.865,172.285 82.871,172.160 82.571 C 171.960 82.092,169.600 82.310,169.600 82.807 C 169.600 82.981,168.880 83.027,168.000 82.909 C 166.896 82.761,166.400 82.845,166.400 83.179 C 166.400 83.509,166.018 83.580,165.200 83.400 C 164.384 83.221,164.000 83.291,164.000 83.619 C 164.000 83.960,163.521 84.026,162.371 83.842 C 161.474 83.698,160.831 83.727,160.942 83.906 C 161.052 84.085,159.491 84.455,157.471 84.730 C 155.452 85.004,153.740 85.401,153.667 85.613 C 153.594 85.825,153.099 85.889,152.567 85.756 C 152.035 85.622,151.600 85.668,151.600 85.857 C 151.600 86.045,150.763 86.232,149.741 86.272 C 148.719 86.311,147.759 86.542,147.609 86.785 C 147.459 87.028,147.035 87.112,146.668 86.971 C 146.278 86.821,146.000 86.910,146.000 87.184 C 146.000 87.472,145.690 87.556,145.200 87.400 C 144.741 87.254,144.400 87.328,144.400 87.573 C 144.400 87.808,144.119 88.000,143.776 88.000 C 143.433 88.000,143.263 87.822,143.397 87.605 C 143.537 87.378,143.377 87.311,143.021 87.447 C 142.679 87.578,142.400 87.806,142.400 87.953 C 142.400 88.100,140.870 88.555,139.000 88.965 C 137.130 89.375,135.600 89.860,135.600 90.043 C 135.600 90.225,135.330 90.271,135.000 90.145 C 134.670 90.018,134.400 90.126,134.400 90.384 C 134.400 90.672,134.090 90.756,133.600 90.600 C 133.151 90.458,132.800 90.528,132.800 90.760 C 132.800 90.988,132.530 91.071,132.200 90.945 C 131.870 90.818,131.600 90.926,131.600 91.184 C 131.600 91.472,131.290 91.556,130.800 91.400 C 130.321 91.248,130.000 91.328,130.000 91.600 C 130.000 91.872,129.679 91.952,129.200 91.800 C 128.760 91.660,128.400 91.720,128.400 91.933 C 128.400 92.146,127.500 92.536,126.400 92.800 C 125.300 93.064,124.397 93.487,124.394 93.740 C 124.390 93.998,124.224 93.941,124.015 93.611 C 123.696 93.107,123.605 93.121,123.380 93.709 C 123.235 94.086,122.954 94.295,122.756 94.173 C 122.281 93.879,119.600 94.857,119.600 95.323 C 119.600 95.522,119.330 95.582,119.000 95.455 C 118.670 95.329,118.400 95.419,118.400 95.655 C 118.400 95.892,118.130 95.982,117.800 95.855 C 117.470 95.729,117.200 95.770,117.200 95.947 C 117.200 96.124,116.120 96.569,114.800 96.936 C 113.480 97.303,112.400 97.766,112.400 97.964 C 112.400 98.163,112.042 98.232,111.605 98.117 C 111.097 97.984,110.719 98.146,110.557 98.567 C 110.387 99.011,110.046 99.141,109.503 98.969 C 108.919 98.784,108.785 98.852,109.012 99.219 C 109.224 99.563,109.162 99.624,108.817 99.411 C 108.538 99.238,108.187 99.297,108.036 99.542 C 107.866 99.817,106.623 98.908,104.781 97.164 C 101.542 94.097,97.801 90.646,94.502 87.684 C 93.348 86.648,91.441 84.900,90.265 83.800 C 87.488 81.205,84.643 78.600,79.995 74.400 C 77.927 72.530,72.716 67.788,68.417 63.862 C 64.118 59.935,59.610 55.824,58.400 54.725 C 57.190 53.626,55.210 51.795,54.000 50.655 C 52.790 49.515,50.101 47.057,48.024 45.191 C 42.115 39.885,40.436 38.334,38.512 36.402 C 36.817 34.701,34.839 33.175,34.400 33.231 C 34.290 33.244,32.895 34.680,31.300 36.420 M207.200 110.148 C 207.200 110.340,208.280 110.418,209.600 110.323 C 210.920 110.227,212.000 110.309,212.000 110.505 C 212.000 110.701,212.675 110.823,213.500 110.777 C 214.325 110.731,215.315 110.826,215.700 110.989 C 216.085 111.152,216.664 111.184,216.987 111.060 C 217.310 110.936,217.681 111.007,217.811 111.217 C 217.941 111.428,218.757 111.600,219.624 111.600 C 220.491 111.600,221.200 111.775,221.200 111.990 C 221.200 112.214,221.736 112.273,222.462 112.128 C 223.322 111.956,223.639 112.014,223.456 112.310 C 223.308 112.549,223.370 112.858,223.593 112.996 C 223.817 113.134,224.000 113.057,224.000 112.824 C 224.000 112.591,224.270 112.400,224.600 112.400 C 224.930 112.400,225.200 112.563,225.200 112.763 C 225.200 112.962,225.560 113.031,226.000 112.916 C 226.467 112.794,226.800 112.904,226.800 113.180 C 226.800 113.472,227.107 113.556,227.600 113.400 C 228.040 113.260,228.400 113.309,228.400 113.508 C 228.400 113.707,229.918 114.295,231.774 114.816 C 233.629 115.336,235.069 115.889,234.973 116.044 C 234.877 116.199,235.159 116.231,235.599 116.116 C 236.040 116.001,236.400 116.102,236.400 116.341 C 236.400 116.580,236.652 116.678,236.959 116.560 C 237.267 116.442,237.887 116.741,238.337 117.224 C 238.816 117.739,239.413 118.004,239.778 117.864 C 240.120 117.733,240.400 117.799,240.400 118.013 C 240.400 118.226,240.535 118.362,240.700 118.315 C 240.865 118.268,241.381 118.442,241.847 118.701 C 242.313 118.960,242.808 119.058,242.947 118.919 C 243.086 118.780,243.200 118.877,243.200 119.133 C 243.200 119.390,243.481 119.600,243.824 119.600 C 244.193 119.600,244.331 119.788,244.162 120.062 C 243.992 120.336,244.051 120.415,244.308 120.257 C 244.816 119.943,246.800 120.764,246.800 121.288 C 246.800 121.485,246.980 121.536,247.200 121.400 C 247.420 121.264,247.600 121.433,247.600 121.776 C 247.600 122.119,247.870 122.422,248.200 122.450 C 249.473 122.556,249.638 122.613,249.915 123.046 C 250.072 123.291,250.605 123.619,251.100 123.773 C 251.595 123.928,252.000 124.222,252.000 124.427 C 252.000 124.632,252.360 124.800,252.800 124.800 C 253.240 124.800,253.600 125.064,253.600 125.387 C 253.600 125.745,253.835 125.885,254.200 125.745 C 254.580 125.599,254.800 125.750,254.800 126.157 C 254.800 126.511,254.935 126.762,255.100 126.715 C 255.656 126.558,257.225 127.637,256.990 128.015 C 256.863 128.222,257.038 128.284,257.379 128.153 C 257.778 127.999,258.000 128.139,258.000 128.545 C 258.000 128.951,258.221 129.090,258.624 128.935 C 259.037 128.777,259.321 128.975,259.464 129.521 C 259.582 129.975,260.291 130.637,261.040 130.992 C 261.788 131.347,262.400 131.869,262.400 132.152 C 262.400 132.435,262.637 132.667,262.926 132.667 C 263.701 132.667,266.000 134.466,266.000 135.072 C 266.000 135.707,271.414 141.200,272.040 141.200 C 272.658 141.200,274.225 143.267,274.081 143.893 C 274.017 144.175,274.440 144.587,275.022 144.809 C 275.792 145.101,276.010 145.397,275.820 145.893 C 275.676 146.269,275.689 146.444,275.850 146.283 C 276.264 145.869,279.256 149.276,279.020 149.892 C 278.913 150.171,279.109 150.400,279.455 150.400 C 279.841 150.400,279.999 150.625,279.863 150.980 C 279.730 151.327,279.945 151.655,280.400 151.800 C 280.855 151.945,281.070 152.273,280.937 152.620 C 280.804 152.967,280.954 153.200,281.311 153.200 C 281.817 153.200,282.337 154.090,282.546 155.315 C 282.576 155.488,282.794 155.758,283.032 155.915 C 283.269 156.072,283.989 157.190,284.632 158.400 C 285.274 159.610,285.936 160.660,286.102 160.734 C 286.269 160.808,286.303 161.033,286.179 161.234 C 286.055 161.435,286.163 161.600,286.419 161.600 C 286.676 161.600,286.782 161.870,286.655 162.200 C 286.529 162.530,286.614 162.800,286.846 162.800 C 287.077 162.800,287.192 163.023,287.101 163.296 C 287.010 163.569,287.181 164.038,287.481 164.339 C 287.797 164.655,287.919 165.224,287.771 165.692 C 287.614 166.186,287.670 166.404,287.915 166.252 C 288.327 165.998,288.805 166.797,289.070 168.183 C 289.153 168.613,289.419 169.088,289.661 169.238 C 289.904 169.388,289.979 169.711,289.828 169.955 C 289.676 170.200,289.763 170.400,290.019 170.400 C 290.276 170.400,290.382 170.670,290.255 171.000 C 290.129 171.330,290.220 171.600,290.459 171.600 C 290.698 171.600,290.799 171.960,290.684 172.400 C 290.569 172.840,290.657 173.200,290.880 173.200 C 291.103 173.200,291.182 173.470,291.055 173.800 C 290.929 174.130,291.012 174.400,291.240 174.400 C 291.472 174.400,291.542 174.751,291.400 175.200 C 291.244 175.693,291.328 176.000,291.620 176.000 C 291.896 176.000,292.006 176.333,291.884 176.801 C 291.769 177.241,291.815 177.514,291.987 177.408 C 292.158 177.302,292.420 178.292,292.569 179.608 C 292.718 180.924,293.006 182.000,293.210 182.000 C 293.413 182.000,293.472 182.540,293.340 183.200 C 293.183 183.986,293.261 184.400,293.568 184.400 C 293.886 184.400,293.952 184.848,293.774 185.800 C 293.613 186.654,293.670 187.200,293.917 187.200 C 294.158 187.200,294.239 187.830,294.116 188.748 C 293.992 189.674,294.088 190.407,294.355 190.572 C 294.660 190.761,294.719 191.912,294.541 194.224 C 294.355 196.648,294.411 197.600,294.741 197.600 C 295.031 197.600,295.200 198.411,295.200 199.800 C 295.200 201.191,295.031 202.000,294.740 202.000 C 294.409 202.000,294.352 203.006,294.536 205.600 C 294.717 208.151,294.660 209.200,294.341 209.200 C 294.038 209.200,293.972 209.787,294.138 211.000 C 294.302 212.197,294.236 212.800,293.942 212.800 C 293.664 212.800,293.589 213.245,293.740 214.000 C 293.885 214.724,293.813 215.200,293.560 215.200 C 293.329 215.200,293.192 215.695,293.255 216.300 C 293.319 216.905,293.226 217.634,293.050 217.919 C 292.873 218.205,292.827 218.694,292.947 219.006 C 293.067 219.319,292.993 219.681,292.783 219.811 C 292.572 219.941,292.400 220.587,292.400 221.247 C 292.400 221.945,292.233 222.344,292.000 222.200 C 291.488 221.884,291.491 222.249,292.009 223.217 C 292.343 223.841,292.302 223.937,291.789 223.740 C 291.280 223.545,291.210 223.699,291.423 224.549 C 291.585 225.196,291.521 225.600,291.256 225.600 C 291.019 225.600,290.929 225.870,291.055 226.200 C 291.182 226.530,291.092 226.800,290.855 226.800 C 290.619 226.800,290.529 227.070,290.655 227.400 C 290.782 227.730,290.671 228.000,290.409 228.000 C 290.148 228.000,290.007 228.220,290.097 228.490 C 290.186 228.759,290.030 229.421,289.750 229.961 C 289.470 230.501,289.332 231.091,289.444 231.271 C 289.556 231.452,289.471 231.600,289.255 231.600 C 289.040 231.600,288.745 232.140,288.600 232.800 C 288.455 233.460,288.176 234.000,287.981 234.000 C 287.785 234.000,287.720 234.247,287.836 234.548 C 287.951 234.850,287.796 235.347,287.491 235.652 C 287.186 235.957,287.003 236.410,287.086 236.657 C 287.168 236.905,286.958 237.385,286.618 237.725 C 286.278 238.065,286.000 238.626,286.000 238.971 C 286.000 239.317,285.809 239.600,285.576 239.600 C 285.343 239.600,285.264 239.780,285.400 240.000 C 285.536 240.220,285.471 240.400,285.255 240.400 C 285.039 240.400,284.650 241.043,284.391 241.828 C 284.132 242.613,283.669 243.352,283.362 243.470 C 283.055 243.588,282.904 243.845,283.026 244.042 C 283.148 244.239,283.027 244.400,282.757 244.400 C 282.487 244.400,282.379 244.513,282.517 244.651 C 282.936 245.070,281.624 247.200,280.947 247.200 C 280.565 247.200,280.401 247.425,280.532 247.768 C 280.652 248.081,280.338 248.781,279.835 249.325 C 279.331 249.868,278.808 250.602,278.672 250.956 C 278.536 251.310,278.162 251.600,277.840 251.600 C 277.519 251.600,277.198 252.003,277.128 252.496 C 276.924 253.925,275.794 253.768,274.136 252.082 C 273.291 251.222,268.820 247.098,264.200 242.916 C 249.470 229.585,250.520 230.670,251.171 229.454 C 251.481 228.874,251.975 228.400,252.268 228.400 C 252.560 228.400,252.800 228.209,252.800 227.976 C 252.800 227.743,252.594 227.680,252.342 227.836 C 251.684 228.243,253.255 225.533,254.161 224.700 C 254.580 224.315,254.814 224.000,254.682 224.000 C 254.262 224.000,255.654 221.051,256.341 220.484 C 256.704 220.185,256.775 220.055,256.500 220.194 C 256.225 220.333,256.000 220.257,256.000 220.024 C 256.000 219.791,256.163 219.600,256.363 219.600 C 256.562 219.600,256.631 219.240,256.516 218.800 C 256.401 218.360,256.502 218.000,256.741 218.000 C 256.980 218.000,257.071 217.730,256.945 217.400 C 256.818 217.070,256.922 216.800,257.175 216.800 C 257.428 216.800,257.598 216.575,257.553 216.300 C 257.508 216.025,257.682 215.290,257.939 214.666 C 258.196 214.043,258.299 213.360,258.168 213.149 C 258.038 212.938,258.104 212.548,258.316 212.282 C 259.440 210.876,260.252 192.050,259.217 191.411 C 259.007 191.281,258.936 190.910,259.060 190.587 C 259.184 190.264,259.150 189.685,258.983 189.300 C 258.817 188.915,258.721 188.195,258.769 187.700 C 258.818 187.205,258.652 186.800,258.402 186.800 C 258.128 186.800,258.048 186.480,258.200 186.000 C 258.352 185.521,258.272 185.200,258.000 185.200 C 257.728 185.200,257.648 184.879,257.800 184.400 C 257.942 183.951,257.872 183.600,257.640 183.600 C 257.412 183.600,257.329 183.330,257.455 183.000 C 257.582 182.670,257.474 182.400,257.216 182.400 C 256.928 182.400,256.844 182.090,257.000 181.600 C 257.142 181.151,257.072 180.800,256.840 180.800 C 256.612 180.800,256.529 180.530,256.655 180.200 C 256.782 179.870,256.667 179.600,256.400 179.600 C 256.133 179.600,256.017 179.332,256.143 179.005 C 256.275 178.661,256.166 178.450,255.886 178.505 C 255.619 178.557,255.343 178.105,255.273 177.500 C 255.204 176.895,254.968 176.400,254.750 176.400 C 254.531 176.400,254.464 176.220,254.600 176.000 C 254.736 175.780,254.646 175.600,254.400 175.600 C 254.154 175.600,254.050 175.443,254.168 175.252 C 254.287 175.060,254.017 174.480,253.568 173.963 C 253.120 173.446,252.837 172.703,252.939 172.312 C 253.051 171.882,252.905 171.600,252.570 171.600 C 252.265 171.600,251.906 171.163,251.772 170.629 C 251.637 170.095,251.274 169.561,250.964 169.441 C 250.654 169.322,250.400 168.949,250.400 168.613 C 250.400 168.276,250.220 168.000,250.000 168.000 C 249.780 168.000,249.600 167.736,249.600 167.414 C 249.600 167.092,249.226 166.628,248.769 166.383 C 248.227 166.093,248.026 165.710,248.190 165.282 C 248.329 164.920,248.334 164.733,248.201 164.865 C 247.819 165.247,244.753 162.300,244.963 161.752 C 245.067 161.481,244.893 161.043,244.576 160.780 C 244.259 160.517,243.997 160.459,243.994 160.651 C 243.991 160.843,243.766 160.570,243.494 160.045 C 243.222 159.520,242.910 159.145,242.800 159.212 C 242.315 159.510,240.703 158.236,239.759 156.809 C 239.091 155.800,238.522 155.332,238.140 155.478 C 237.765 155.622,237.472 155.396,237.329 154.852 C 237.207 154.383,236.787 154.000,236.396 154.000 C 236.005 154.000,235.582 153.730,235.455 153.400 C 235.329 153.070,234.949 152.800,234.613 152.800 C 234.276 152.800,234.000 152.536,234.000 152.213 C 234.000 151.869,233.764 151.716,233.431 151.843 C 233.118 151.964,232.488 151.688,232.031 151.231 C 231.574 150.774,231.200 150.497,231.200 150.616 C 231.200 150.734,230.801 150.460,230.314 150.006 C 229.827 149.552,229.197 149.269,228.914 149.378 C 228.631 149.486,228.400 149.415,228.400 149.218 C 228.400 149.022,227.770 148.654,227.000 148.400 C 226.230 148.146,225.600 147.778,225.600 147.582 C 225.600 147.385,225.330 147.329,225.000 147.455 C 224.670 147.582,224.400 147.476,224.400 147.219 C 224.400 146.963,224.220 146.864,224.000 147.000 C 223.780 147.136,223.600 147.102,223.600 146.924 C 223.600 146.746,223.126 146.573,222.547 146.539 C 221.969 146.506,221.359 146.257,221.192 145.988 C 221.026 145.718,220.689 145.621,220.445 145.772 C 220.200 145.924,220.000 145.837,220.000 145.581 C 220.000 145.324,219.736 145.216,219.413 145.340 C 219.090 145.464,218.724 145.401,218.600 145.200 C 218.476 144.999,218.110 144.936,217.787 145.060 C 217.464 145.184,217.200 145.126,217.200 144.930 C 217.200 144.734,216.705 144.534,216.100 144.484 C 215.495 144.434,214.946 144.234,214.881 144.039 C 214.815 143.844,214.402 143.779,213.963 143.894 C 213.469 144.023,212.930 143.816,212.552 143.351 C 212.216 142.938,212.055 142.825,212.194 143.100 C 212.364 143.436,212.111 143.600,211.424 143.600 C 210.861 143.600,210.400 143.412,210.400 143.182 C 210.400 142.922,209.879 142.861,209.026 143.022 C 208.270 143.163,207.415 143.131,207.126 142.949 C 206.402 142.495,192.800 142.486,192.800 142.939 C 192.800 143.139,192.080 143.187,191.200 143.046 C 190.219 142.890,189.600 142.947,189.600 143.195 C 189.600 143.786,188.002 143.692,187.987 143.100 C 187.980 142.811,187.734 142.917,187.406 143.351 C 187.043 143.830,186.539 144.025,186.018 143.889 C 185.568 143.771,185.200 143.838,185.200 144.037 C 185.200 144.237,184.762 144.400,184.226 144.400 C 183.690 144.400,182.745 144.609,182.126 144.864 C 181.507 145.119,180.775 145.292,180.500 145.247 C 180.225 145.202,180.000 145.363,180.000 145.606 C 180.000 145.849,179.800 145.924,179.555 145.772 C 179.311 145.621,178.974 145.718,178.808 145.988 C 178.641 146.257,178.031 146.506,177.453 146.539 C 176.874 146.573,176.400 146.746,176.400 146.924 C 176.400 147.102,176.220 147.136,176.000 147.000 C 175.780 146.864,175.600 146.915,175.600 147.112 C 175.600 147.310,174.880 147.710,174.000 148.000 C 173.120 148.290,172.400 148.690,172.400 148.888 C 172.400 149.085,172.220 149.136,172.000 149.000 C 171.780 148.864,171.600 148.954,171.600 149.200 C 171.600 149.446,171.420 149.536,171.200 149.400 C 170.980 149.264,170.800 149.363,170.800 149.619 C 170.800 149.876,170.545 149.988,170.233 149.868 C 169.921 149.748,169.563 149.921,169.436 150.251 C 169.309 150.581,169.043 150.750,168.845 150.628 C 168.646 150.505,168.365 150.714,168.220 151.091 C 167.995 151.679,167.904 151.693,167.585 151.189 C 167.259 150.674,167.211 150.676,167.206 151.204 C 167.187 153.130,165.631 152.855,163.094 150.476 C 159.631 147.229,151.020 139.335,146.712 135.459 C 141.053 130.366,139.222 128.109,141.440 128.960 C 141.774 129.088,142.000 128.920,142.000 128.545 C 142.000 128.175,142.227 128.001,142.549 128.125 C 142.863 128.245,143.315 127.933,143.600 127.400 C 143.885 126.867,144.337 126.555,144.651 126.675 C 144.985 126.803,145.200 126.617,145.200 126.200 C 145.200 125.755,145.410 125.595,145.800 125.745 C 146.165 125.885,146.400 125.745,146.400 125.387 C 146.400 125.064,146.760 124.800,147.200 124.800 C 147.640 124.800,148.000 124.652,148.000 124.471 C 148.000 124.095,151.644 122.174,152.100 122.310 C 152.265 122.360,152.400 122.155,152.400 121.855 C 152.400 121.555,153.525 120.811,154.900 120.203 C 156.275 119.594,157.704 118.832,158.075 118.509 C 158.446 118.186,158.941 118.040,159.175 118.184 C 159.409 118.329,159.600 118.246,159.600 118.000 C 159.600 117.754,159.780 117.664,160.000 117.800 C 160.220 117.936,160.400 117.846,160.400 117.600 C 160.400 117.354,160.600 117.276,160.845 117.428 C 161.089 117.579,161.421 117.490,161.581 117.231 C 161.741 116.972,162.261 116.731,162.736 116.695 C 163.211 116.659,163.600 116.467,163.600 116.268 C 163.600 116.069,163.954 115.999,164.386 116.112 C 164.819 116.225,165.134 116.138,165.086 115.918 C 165.039 115.698,165.524 115.455,166.164 115.379 C 166.804 115.303,167.434 115.097,167.564 114.920 C 167.694 114.744,167.980 114.596,168.200 114.592 C 169.528 114.566,171.601 113.890,171.606 113.482 C 171.610 113.143,171.712 113.157,171.948 113.530 C 172.219 113.957,172.413 113.930,172.952 113.391 C 173.320 113.023,173.886 112.824,174.210 112.949 C 174.535 113.073,174.800 112.980,174.800 112.741 C 174.800 112.493,175.230 112.389,175.800 112.498 C 176.350 112.603,176.800 112.513,176.800 112.298 C 176.800 112.083,177.160 112.001,177.600 112.116 C 178.040 112.231,178.400 112.180,178.400 112.003 C 178.400 111.681,179.730 111.477,185.000 110.991 C 186.540 110.849,187.850 110.598,187.911 110.434 C 187.972 110.270,188.983 110.216,190.159 110.313 C 191.335 110.411,192.393 110.335,192.510 110.145 C 192.790 109.692,207.200 109.695,207.200 110.148 M134.952 138.266 C 137.877 140.867,143.691 146.150,145.666 148.000 C 146.722 148.990,148.715 150.834,150.093 152.097 C 158.097 159.432,157.787 158.905,155.296 160.929 C 154.799 161.333,154.490 161.822,154.609 162.014 C 154.909 162.500,153.198 164.409,152.076 164.842 C 151.568 165.038,151.264 165.380,151.401 165.602 C 151.700 166.085,150.613 167.279,150.226 166.893 C 150.079 166.745,150.068 166.911,150.202 167.261 C 150.348 167.641,150.195 167.993,149.823 168.136 C 149.480 168.267,149.200 168.636,149.200 168.954 C 149.200 169.273,149.065 169.593,148.900 169.667 C 148.735 169.740,148.164 170.745,147.632 171.900 C 147.099 173.055,146.503 174.000,146.308 174.000 C 146.113 174.000,146.064 174.180,146.200 174.400 C 146.336 174.620,146.271 174.800,146.057 174.800 C 145.842 174.800,145.357 175.610,144.979 176.600 C 144.601 177.590,144.141 178.400,143.958 178.400 C 143.775 178.400,143.729 178.670,143.855 179.000 C 143.982 179.330,143.914 179.600,143.704 179.600 C 143.494 179.600,143.305 180.181,143.285 180.892 C 143.265 181.603,143.068 182.244,142.847 182.318 C 142.626 182.391,142.544 182.710,142.665 183.026 C 142.786 183.342,142.667 183.600,142.400 183.600 C 142.133 183.600,142.016 183.864,142.140 184.187 C 142.264 184.510,142.186 184.885,141.966 185.021 C 141.747 185.156,141.677 185.612,141.811 186.034 C 141.952 186.480,141.865 186.800,141.602 186.800 C 141.353 186.800,141.189 187.115,141.236 187.500 C 141.284 187.885,141.185 188.518,141.016 188.906 C 140.848 189.294,140.803 189.969,140.917 190.406 C 141.032 190.843,140.962 191.200,140.763 191.200 C 140.287 191.200,140.287 207.483,140.762 207.777 C 140.962 207.900,141.031 208.362,140.915 208.803 C 140.800 209.243,140.899 209.838,141.136 210.123 C 141.373 210.408,141.463 211.037,141.337 211.521 C 141.195 212.061,141.289 212.400,141.580 212.400 C 141.872 212.400,141.956 212.707,141.800 213.200 C 141.648 213.679,141.728 214.000,142.000 214.000 C 142.272 214.000,142.352 214.321,142.200 214.800 C 142.058 215.249,142.128 215.600,142.360 215.600 C 142.588 215.600,142.671 215.870,142.545 216.200 C 142.418 216.530,142.533 216.800,142.800 216.800 C 143.067 216.800,143.196 217.033,143.087 217.317 C 142.978 217.601,143.139 218.175,143.444 218.593 C 144.120 219.517,144.182 220.560,143.538 220.162 C 143.252 219.985,143.185 220.052,143.362 220.338 C 143.519 220.592,143.937 220.800,144.290 220.800 C 144.644 220.800,144.820 220.913,144.683 221.051 C 144.545 221.189,144.685 221.909,144.995 222.651 C 145.306 223.393,145.471 224.000,145.364 224.000 C 145.257 224.000,145.551 224.405,146.018 224.900 C 147.217 226.170,148.096 227.972,147.841 228.636 C 147.698 229.010,147.905 229.200,148.455 229.200 C 149.029 229.200,149.214 229.385,149.055 229.800 C 148.915 230.165,149.055 230.400,149.413 230.400 C 149.924 230.400,150.199 231.137,150.047 232.100 C 150.021 232.265,150.289 232.400,150.643 232.400 C 151.050 232.400,151.201 232.620,151.055 233.000 C 150.914 233.368,151.056 233.600,151.422 233.600 C 151.751 233.600,152.191 234.050,152.400 234.600 C 152.609 235.150,152.975 235.600,153.214 235.600 C 153.452 235.600,153.536 235.780,153.400 236.001 C 153.263 236.221,153.575 236.562,154.092 236.759 C 155.252 237.200,156.151 238.232,155.829 238.754 C 155.696 238.967,155.954 239.258,156.400 239.400 C 156.847 239.542,157.091 239.852,156.944 240.091 C 156.783 240.352,156.864 240.408,157.148 240.232 C 157.679 239.904,161.661 243.577,161.339 244.098 C 161.230 244.275,161.289 244.394,161.470 244.363 C 162.312 244.216,162.800 244.451,162.800 245.000 C 162.800 245.330,163.132 245.600,163.538 245.600 C 164.399 245.600,166.400 247.208,166.400 247.900 C 166.400 248.161,166.670 248.271,167.000 248.145 C 167.396 247.993,167.611 248.167,167.632 248.657 C 167.649 249.073,167.752 249.181,167.864 248.903 C 168.099 248.320,169.410 248.887,170.400 250.000 C 170.730 250.371,171.225 250.598,171.500 250.504 C 171.775 250.410,172.000 250.514,172.000 250.735 C 172.000 250.955,172.900 251.435,174.000 251.800 C 175.100 252.165,176.000 252.585,176.000 252.732 C 176.000 252.879,176.474 253.027,177.053 253.061 C 177.631 253.094,178.228 253.322,178.379 253.566 C 178.676 254.047,183.880 255.600,185.195 255.600 C 185.638 255.600,186.000 255.755,186.000 255.945 C 186.000 256.134,186.450 256.203,187.000 256.098 C 187.603 255.983,188.000 256.091,188.000 256.371 C 188.000 256.686,188.453 256.751,189.400 256.574 C 190.359 256.394,190.800 256.460,190.800 256.784 C 190.800 257.125,191.418 257.180,193.000 256.983 C 194.516 256.793,195.200 256.847,195.200 257.154 C 195.200 257.458,196.789 257.600,200.200 257.600 C 203.553 257.600,205.200 257.456,205.200 257.162 C 205.200 256.867,205.851 256.815,207.200 257.000 C 208.646 257.199,209.200 257.141,209.200 256.793 C 209.200 256.459,209.629 256.391,210.600 256.574 C 211.552 256.752,212.000 256.686,212.000 256.368 C 212.000 256.060,212.416 255.983,213.220 256.144 C 213.891 256.278,214.353 256.247,214.246 256.074 C 214.139 255.902,215.674 255.433,217.657 255.032 C 219.884 254.582,221.346 254.084,221.483 253.729 C 221.604 253.413,221.950 253.249,222.252 253.364 C 222.553 253.480,222.800 253.381,222.800 253.145 C 222.800 252.908,223.070 252.818,223.400 252.945 C 223.730 253.071,224.000 252.981,224.000 252.745 C 224.000 252.508,224.279 252.422,224.621 252.553 C 225.016 252.704,225.141 252.628,224.965 252.344 C 224.800 252.076,224.908 251.969,225.236 252.079 C 225.537 252.179,226.129 251.938,226.552 251.544 C 226.975 251.150,227.483 250.928,227.682 251.051 C 227.880 251.173,228.395 250.867,228.826 250.369 C 229.258 249.872,229.946 249.441,230.356 249.411 C 230.766 249.380,231.417 249.040,231.802 248.655 C 232.188 248.269,232.750 248.049,233.052 248.164 C 233.408 248.301,233.600 248.084,233.600 247.545 C 233.600 246.969,233.785 246.785,234.204 246.946 C 234.552 247.080,235.005 246.861,235.275 246.429 C 235.532 246.017,235.978 245.770,236.266 245.881 C 236.573 245.998,236.959 245.634,237.200 245.000 C 237.500 244.211,237.795 243.989,238.293 244.180 C 238.669 244.324,238.866 244.333,238.732 244.198 C 238.321 243.788,241.704 240.354,242.295 240.581 C 242.596 240.696,242.746 240.636,242.628 240.446 C 242.511 240.256,242.874 239.605,243.435 239.000 L 244.455 237.900 245.114 238.850 C 245.477 239.372,246.218 240.160,246.761 240.600 C 247.303 241.040,248.687 242.300,249.834 243.400 C 250.982 244.500,253.231 246.570,254.832 248.000 C 256.433 249.430,258.308 251.140,258.999 251.800 C 259.689 252.460,262.349 254.875,264.909 257.167 C 267.470 259.458,269.458 261.506,269.328 261.717 C 268.827 262.528,265.840 265.015,264.712 265.562 C 264.061 265.877,263.368 266.557,263.172 267.074 C 262.975 267.591,262.372 268.183,261.831 268.388 C 261.291 268.594,260.655 269.124,260.418 269.566 C 260.181 270.008,259.744 270.277,259.446 270.162 C 259.123 270.038,258.813 270.307,258.676 270.829 C 258.524 271.413,258.242 271.625,257.830 271.467 C 257.453 271.322,257.048 271.536,256.792 272.015 C 256.561 272.447,256.108 272.800,255.786 272.800 C 255.464 272.800,255.200 273.089,255.200 273.443 C 255.200 273.850,254.980 274.001,254.600 273.855 C 254.267 273.728,254.000 273.844,254.000 274.116 C 254.000 274.961,252.359 275.779,251.953 275.137 C 251.695 274.730,251.611 274.780,251.606 275.343 C 251.602 275.838,251.400 276.009,251.000 275.855 C 250.635 275.715,250.400 275.855,250.400 276.213 C 250.400 276.536,250.124 276.800,249.787 276.800 C 249.451 276.800,249.072 277.069,248.946 277.398 C 248.819 277.726,248.555 277.896,248.358 277.774 C 248.161 277.652,248.000 277.754,248.000 278.000 C 248.000 278.246,247.820 278.336,247.600 278.200 C 247.380 278.064,247.200 278.163,247.200 278.419 C 247.200 278.676,246.923 278.779,246.585 278.650 C 246.235 278.515,245.872 278.669,245.743 279.004 C 245.618 279.329,245.355 279.496,245.158 279.374 C 244.961 279.252,244.800 279.354,244.800 279.600 C 244.800 279.846,244.620 279.936,244.400 279.800 C 244.180 279.664,244.000 279.743,244.000 279.976 C 244.000 280.209,243.680 280.400,243.289 280.400 C 242.898 280.400,242.257 280.775,241.864 281.233 C 241.472 281.692,240.892 281.967,240.575 281.846 C 240.259 281.724,240.000 281.810,240.000 282.036 C 240.000 282.262,239.820 282.336,239.600 282.200 C 239.380 282.064,239.200 282.154,239.200 282.400 C 239.200 282.646,239.019 282.735,238.797 282.598 C 238.575 282.461,238.102 282.641,237.745 282.998 C 237.389 283.354,236.850 283.551,236.548 283.436 C 236.247 283.320,236.000 283.420,236.000 283.659 C 236.000 283.898,235.640 283.999,235.199 283.884 C 234.759 283.769,234.488 283.818,234.596 283.993 C 234.704 284.169,234.165 284.430,233.396 284.574 C 232.628 284.718,232.000 284.963,231.999 285.118 C 231.999 285.273,231.427 285.440,230.729 285.489 C 230.031 285.539,229.342 285.770,229.198 286.003 C 229.054 286.236,228.635 286.312,228.268 286.171 C 227.878 286.021,227.600 286.110,227.600 286.384 C 227.600 286.672,227.290 286.756,226.800 286.600 C 226.321 286.448,226.000 286.528,226.000 286.800 C 226.000 287.072,225.679 287.152,225.200 287.000 C 224.707 286.844,224.400 286.928,224.400 287.220 C 224.400 287.496,224.067 287.606,223.600 287.484 C 223.160 287.369,222.800 287.461,222.800 287.687 C 222.800 287.933,222.313 288.003,221.600 287.860 C 220.923 287.725,220.400 287.790,220.400 288.010 C 220.400 288.224,219.691 288.400,218.824 288.400 C 217.957 288.400,217.146 288.563,217.023 288.762 C 216.900 288.962,216.438 289.031,215.997 288.915 C 215.557 288.800,214.952 288.907,214.655 289.154 C 214.347 289.410,213.579 289.496,212.870 289.354 C 212.185 289.217,211.304 289.243,210.912 289.412 C 210.521 289.581,208.985 289.676,207.500 289.624 C 205.846 289.565,204.800 289.688,204.800 289.942 C 204.800 290.500,195.310 290.502,194.965 289.944 C 194.824 289.715,193.616 289.574,192.255 289.627 C 190.905 289.680,189.477 289.583,189.083 289.412 C 188.688 289.241,187.743 289.202,186.983 289.325 C 186.168 289.457,185.600 289.383,185.600 289.145 C 185.600 288.922,185.105 288.779,184.500 288.827 C 183.895 288.875,183.104 288.787,182.741 288.630 C 182.379 288.474,181.839 288.379,181.541 288.420 C 180.299 288.591,179.169 288.373,179.396 288.006 C 179.547 287.762,179.176 287.705,178.420 287.856 C 177.691 288.002,177.200 287.934,177.200 287.687 C 177.200 287.461,176.840 287.369,176.400 287.484 C 175.933 287.606,175.600 287.496,175.600 287.220 C 175.600 286.935,175.294 286.843,174.834 286.989 C 174.412 287.123,173.950 287.042,173.806 286.810 C 173.662 286.577,173.399 286.477,173.221 286.587 C 173.043 286.697,172.380 286.532,171.749 286.220 C 171.117 285.908,170.060 285.596,169.400 285.526 C 168.740 285.457,168.102 285.270,167.983 285.110 C 167.863 284.951,167.413 284.754,166.983 284.672 C 165.145 284.325,164.000 283.888,164.000 283.533 C 164.000 283.324,163.820 283.264,163.600 283.400 C 163.380 283.536,163.200 283.462,163.200 283.236 C 163.200 283.010,162.930 282.929,162.600 283.055 C 162.270 283.182,162.000 283.067,162.000 282.800 C 162.000 282.533,161.745 282.412,161.432 282.532 C 161.120 282.652,160.486 282.421,160.022 282.019 C 159.559 281.618,158.644 281.067,157.990 280.796 C 157.335 280.525,156.800 280.124,156.800 279.905 C 156.800 279.686,156.440 279.601,156.000 279.716 C 155.560 279.831,155.200 279.751,155.200 279.539 C 155.200 279.327,155.036 279.254,154.835 279.378 C 154.415 279.638,152.006 278.361,152.003 277.876 C 152.001 277.698,151.820 277.664,151.600 277.800 C 151.380 277.936,151.200 277.901,151.200 277.721 C 151.200 277.542,150.660 277.156,150.000 276.864 C 149.340 276.572,148.800 276.089,148.800 275.790 C 148.800 275.492,148.622 275.137,148.405 275.003 C 148.173 274.860,148.104 275.058,148.237 275.479 C 148.455 276.168,148.439 276.168,147.869 275.473 C 147.541 275.074,147.166 274.759,147.036 274.773 C 146.238 274.863,146.000 274.735,146.000 274.213 C 146.000 273.855,145.765 273.715,145.400 273.855 C 145.010 274.005,144.800 273.845,144.800 273.400 C 144.800 272.955,144.590 272.795,144.200 272.945 C 143.870 273.071,143.600 273.035,143.600 272.864 C 143.600 272.693,143.317 272.204,142.970 271.776 C 142.624 271.349,142.453 271.223,142.591 271.495 C 142.756 271.822,142.629 271.909,142.221 271.753 C 141.879 271.622,141.600 271.264,141.600 270.957 C 141.600 270.651,141.261 270.400,140.846 270.400 C 140.431 270.400,139.797 269.950,139.437 269.400 C 139.076 268.850,138.511 268.400,138.181 268.400 C 137.851 268.400,137.413 267.961,137.209 267.424 C 136.865 266.519,135.200 265.219,135.200 265.856 C 135.200 266.295,133.145 264.281,132.856 263.558 C 132.715 263.205,131.390 261.894,129.912 260.643 C 128.433 259.393,126.948 257.789,126.611 257.079 C 126.274 256.370,125.606 255.612,125.125 255.395 C 124.645 255.178,124.172 254.750,124.074 254.444 C 123.967 254.108,124.075 253.999,124.348 254.168 C 124.597 254.322,124.800 254.342,124.800 254.214 C 124.800 254.085,124.350 253.809,123.800 253.600 C 123.168 253.360,122.800 252.908,122.800 252.372 C 122.800 251.862,122.482 251.442,122.000 251.316 C 121.560 251.201,121.200 250.935,121.200 250.725 C 121.200 250.515,120.928 250.071,120.596 249.739 C 120.264 249.407,120.083 248.989,120.194 248.810 C 120.305 248.630,120.126 248.381,119.798 248.254 C 119.469 248.128,119.200 247.749,119.200 247.413 C 119.200 247.076,119.020 246.800,118.800 246.800 C 118.580 246.800,118.400 246.536,118.400 246.214 C 118.400 245.892,118.023 245.426,117.562 245.180 C 117.011 244.885,116.793 244.470,116.925 243.965 C 117.035 243.544,116.964 243.299,116.766 243.421 C 116.569 243.543,116.091 242.958,115.704 242.121 C 115.317 241.285,114.864 240.540,114.698 240.466 C 114.531 240.392,114.494 240.171,114.616 239.974 C 114.857 239.585,114.303 238.374,113.498 237.531 C 112.779 236.778,111.952 234.802,112.193 234.412 C 112.304 234.231,112.115 233.976,111.772 233.845 C 111.430 233.713,111.261 233.424,111.398 233.203 C 111.535 232.981,111.495 232.800,111.309 232.800 C 111.123 232.800,110.940 232.398,110.903 231.906 C 110.866 231.414,110.658 230.953,110.440 230.880 C 110.223 230.808,110.144 230.490,110.265 230.174 C 110.386 229.858,110.267 229.600,110.000 229.600 C 109.733 229.600,109.618 229.330,109.745 229.000 C 109.871 228.670,109.781 228.400,109.545 228.400 C 109.308 228.400,109.216 228.136,109.340 227.813 C 109.464 227.490,109.381 227.112,109.155 226.972 C 108.930 226.833,108.842 226.467,108.960 226.160 C 109.078 225.852,108.988 225.600,108.760 225.600 C 108.528 225.600,108.458 225.249,108.600 224.800 C 108.756 224.307,108.672 224.000,108.380 224.000 C 108.104 224.000,107.994 223.667,108.116 223.200 C 108.231 222.760,108.191 222.400,108.027 222.400 C 107.863 222.400,107.490 220.862,107.197 218.982 C 106.905 217.102,106.522 215.475,106.346 215.367 C 106.170 215.258,106.133 214.636,106.263 213.984 C 106.403 213.285,106.331 212.800,106.088 212.800 C 105.838 212.800,105.761 212.170,105.891 211.200 C 106.036 210.120,105.953 209.600,105.636 209.600 C 105.294 209.600,105.241 208.783,105.438 206.600 C 105.636 204.424,105.582 203.600,105.243 203.600 C 104.916 203.600,104.793 202.463,104.833 199.800 C 104.867 197.567,105.055 196.000,105.291 196.000 C 105.542 196.000,105.605 194.958,105.459 193.200 C 105.301 191.293,105.367 190.400,105.666 190.400 C 105.948 190.400,106.028 189.825,105.891 188.800 C 105.773 187.920,105.851 187.092,106.064 186.960 C 106.277 186.829,106.402 186.243,106.341 185.660 C 106.280 185.077,106.332 184.420,106.458 184.200 C 106.583 183.980,106.927 182.405,107.223 180.700 C 107.518 178.995,107.887 177.600,108.042 177.600 C 108.198 177.600,108.231 177.240,108.116 176.800 C 107.994 176.333,108.104 176.000,108.380 176.000 C 108.672 176.000,108.756 175.693,108.600 175.200 C 108.448 174.721,108.528 174.400,108.800 174.400 C 109.062 174.400,109.153 174.082,109.015 173.647 C 108.856 173.147,109.011 172.805,109.477 172.626 C 110.075 172.396,110.092 172.303,109.589 171.985 C 109.243 171.766,109.193 171.610,109.469 171.606 C 109.939 171.600,110.662 169.832,110.926 168.043 C 111.003 167.517,111.358 166.874,111.714 166.613 C 112.102 166.329,112.277 165.816,112.150 165.330 C 112.029 164.868,112.216 164.242,112.583 163.874 C 112.938 163.519,113.222 163.132,113.214 163.014 C 113.167 162.312,113.270 162.076,113.922 161.375 C 114.320 160.949,114.676 160.463,114.713 160.296 C 114.996 159.036,116.586 156.014,117.062 155.831 C 117.386 155.707,117.533 155.415,117.389 155.182 C 117.244 154.948,117.459 154.452,117.866 154.079 C 118.273 153.705,118.856 152.911,119.163 152.314 C 119.470 151.716,119.871 151.321,120.056 151.434 C 120.240 151.548,120.302 151.407,120.193 151.121 C 120.005 150.624,121.032 149.145,122.788 147.386 C 123.234 146.938,123.600 146.363,123.600 146.108 C 123.600 145.853,124.082 145.409,124.670 145.122 C 125.318 144.806,125.766 144.241,125.804 143.693 C 125.868 142.779,127.001 141.636,127.866 141.613 C 128.423 141.598,130.800 138.685,130.800 138.019 C 130.800 137.763,130.953 137.648,131.141 137.764 C 131.329 137.880,131.824 137.716,132.241 137.400 C 133.238 136.646,133.069 136.592,134.952 138.266 " stroke="none" fill="#fcfcfc" fill-rule="evenodd"></path><path id="path1" d="M267.367 262.560 C 266.505 263.308,265.893 264.016,266.007 264.133 C 266.120 264.250,266.917 263.638,267.777 262.773 C 269.699 260.840,269.479 260.726,267.367 262.560 " stroke="none" fill="#d8d8d8" fill-rule="evenodd"></path><path id="path2" d="M235.200 83.600 C 235.200 83.820,235.571 84.000,236.024 84.000 C 236.477 84.000,236.736 83.820,236.600 83.600 C 236.464 83.380,236.093 83.200,235.776 83.200 C 235.459 83.200,235.200 83.380,235.200 83.600 M245.200 120.554 C 245.200 120.639,245.650 121.003,246.200 121.363 C 247.335 122.107,247.501 121.958,246.571 121.029 C 245.998 120.455,245.200 120.179,245.200 120.554 M152.884 121.415 C 152.222 122.166,152.770 122.149,153.776 121.387 C 154.322 120.974,154.382 120.805,153.976 120.815 C 153.659 120.824,153.168 121.094,152.884 121.415 M198.663 142.300 C 198.562 142.465,199.170 142.608,200.013 142.619 C 200.857 142.629,201.458 142.494,201.350 142.319 C 201.100 141.915,198.909 141.900,198.663 142.300 M375.843 158.567 C 375.976 158.915,376.261 159.200,376.476 159.200 C 377.002 159.200,376.673 158.291,376.075 158.092 C 375.782 157.994,375.693 158.177,375.843 158.567 M153.421 162.777 C 153.034 163.204,152.781 163.740,152.859 163.968 C 152.937 164.196,153.307 163.846,153.681 163.191 C 154.474 161.806,154.402 161.692,153.421 162.777 M251.895 170.246 C 251.640 170.658,252.232 171.914,252.528 171.588 C 252.622 171.485,252.573 171.052,252.419 170.627 C 252.264 170.201,252.029 170.030,251.895 170.246 M139.600 196.800 C 139.600 197.973,139.680 198.853,139.779 198.755 C 140.086 198.447,140.169 195.236,139.878 194.944 C 139.725 194.792,139.600 195.627,139.600 196.800 M139.600 202.110 C 139.600 203.343,139.759 204.451,139.954 204.572 C 140.310 204.792,140.153 200.420,139.792 200.059 C 139.686 199.953,139.600 200.876,139.600 202.110 M259.600 203.176 C 259.600 203.629,259.780 204.000,260.000 204.000 C 260.220 204.000,260.400 203.741,260.400 203.424 C 260.400 203.107,260.220 202.736,260.000 202.600 C 259.780 202.464,259.600 202.723,259.600 203.176 M112.006 234.700 C 112.024 235.577,112.788 236.159,112.794 235.300 C 112.797 234.805,112.620 234.400,112.400 234.400 C 112.180 234.400,112.003 234.535,112.006 234.700 M154.400 237.237 C 154.400 237.551,154.805 238.056,155.300 238.360 L 156.200 238.913 155.404 237.957 C 154.967 237.430,154.562 236.925,154.504 236.833 C 154.447 236.742,154.400 236.923,154.400 237.237 M375.967 241.246 C 375.121 242.435,375.117 242.472,375.890 242.059 C 376.335 241.820,376.796 241.260,376.913 240.813 C 377.204 239.698,377.004 239.790,375.967 241.246 M240.800 241.604 C 239.606 242.613,239.556 242.716,240.461 242.302 C 241.044 242.036,241.720 241.499,241.964 241.109 C 242.551 240.169,242.446 240.214,240.800 241.604 M158.200 241.600 C 158.598 242.040,159.166 242.400,159.462 242.400 C 159.825 242.400,159.740 242.140,159.200 241.600 C 158.760 241.160,158.192 240.800,157.938 240.800 C 157.676 240.800,157.789 241.146,158.200 241.600 M195.563 290.124 C 195.742 290.303,196.769 290.390,197.844 290.318 L 199.800 290.187 197.519 289.994 C 196.264 289.887,195.384 289.946,195.563 290.124 M201.105 290.283 C 201.602 290.379,202.322 290.375,202.705 290.275 C 203.087 290.175,202.680 290.096,201.800 290.101 C 200.920 290.105,200.607 290.187,201.105 290.283 M89.825 291.959 C 89.715 292.137,90.078 292.489,90.631 292.742 C 91.870 293.306,92.000 293.309,92.000 292.776 C 92.000 292.543,91.820 292.464,91.600 292.600 C 91.380 292.736,91.200 292.676,91.200 292.466 C 91.200 291.960,90.080 291.547,89.825 291.959 M129.800 308.400 C 129.936 308.620,130.317 308.800,130.647 308.800 C 130.977 308.800,131.136 308.620,131.000 308.400 C 130.864 308.180,130.483 308.000,130.153 308.000 C 129.823 308.000,129.664 308.180,129.800 308.400 " stroke="none" fill="#ececec" fill-rule="evenodd"></path><path id="path3" d="M267.800 262.706 C 267.580 262.868,267.135 263.360,266.812 263.800 C 266.378 264.391,266.509 264.346,267.312 263.630 C 268.291 262.758,268.589 262.388,268.300 262.406 C 268.245 262.409,268.020 262.544,267.800 262.706 M196.505 289.887 C 197.114 289.979,198.014 289.977,198.505 289.882 C 198.997 289.787,198.500 289.711,197.400 289.714 C 196.300 289.717,195.897 289.795,196.505 289.887 M201.705 289.887 C 202.314 289.979,203.214 289.977,203.705 289.882 C 204.197 289.787,203.700 289.711,202.600 289.714 C 201.500 289.717,201.097 289.795,201.705 289.887 " stroke="none" fill="#e4e4e4" fill-rule="evenodd"></path><path id="path4" d="M178.400 112.000 C 178.400 112.220,178.670 112.400,179.000 112.400 C 179.330 112.400,179.600 112.220,179.600 112.000 C 179.600 111.780,179.330 111.600,179.000 111.600 C 178.670 111.600,178.400 111.780,178.400 112.000 M78.196 114.807 C 78.058 115.030,77.777 115.109,77.572 114.983 C 77.368 114.856,77.200 114.943,77.200 115.176 C 77.200 115.751,77.648 115.690,78.576 114.987 C 79.004 114.664,79.149 114.400,78.900 114.400 C 78.651 114.400,78.334 114.583,78.196 114.807 M322.000 115.124 C 322.000 115.339,322.285 115.624,322.633 115.757 C 323.023 115.907,323.206 115.818,323.108 115.525 C 322.909 114.927,322.000 114.598,322.000 115.124 M35.861 146.347 C 35.143 146.630,35.143 146.653,35.861 147.206 C 36.268 147.518,36.467 147.616,36.303 147.424 C 36.140 147.231,36.207 146.832,36.452 146.537 C 36.947 145.941,36.917 145.931,35.861 146.347 M282.957 156.633 C 283.091 156.981,283.200 157.351,283.200 157.456 C 283.200 157.561,283.372 157.541,283.583 157.411 C 284.047 157.124,283.674 156.000,283.114 156.000 C 282.894 156.000,282.824 156.285,282.957 156.633 M240.560 157.936 C 241.033 158.701,242.529 159.386,242.313 158.739 C 242.214 158.442,241.968 158.197,241.767 158.194 C 241.565 158.191,241.147 158.028,240.838 157.832 C 240.453 157.588,240.366 157.621,240.560 157.936 M113.453 162.100 L 112.733 163.400 113.558 162.400 C 114.289 161.513,114.614 160.800,114.286 160.800 C 114.224 160.800,113.849 161.385,113.453 162.100 M244.800 161.930 C 244.800 162.112,245.294 162.697,245.897 163.230 C 246.693 163.934,246.803 163.972,246.297 163.369 C 245.914 162.911,245.600 162.326,245.600 162.069 C 245.600 161.811,245.420 161.600,245.200 161.600 C 244.980 161.600,244.800 161.749,244.800 161.930 M154.119 162.490 C 153.231 163.638,153.143 164.138,153.981 163.274 C 154.476 162.764,154.798 162.265,154.697 162.164 C 154.596 162.063,154.336 162.210,154.119 162.490 M11.400 173.506 C 10.506 174.163,9.968 175.133,10.364 175.377 C 10.585 175.514,11.048 175.080,11.393 174.413 C 12.052 173.140,12.053 173.027,11.400 173.506 M104.833 199.800 C 104.796 202.288,104.925 203.600,105.208 203.600 C 105.492 203.600,105.616 202.297,105.569 199.800 C 105.530 197.710,105.361 196.000,105.194 196.000 C 105.027 196.000,104.864 197.710,104.833 199.800 M140.137 199.000 C 140.139 200.760,140.209 201.430,140.293 200.489 C 140.378 199.549,140.377 198.109,140.291 197.289 C 140.205 196.470,140.136 197.240,140.137 199.000 M259.867 196.267 C 259.440 196.693,259.559 202.327,260.000 202.600 C 260.255 202.757,260.400 201.604,260.400 199.424 C 260.400 195.994,260.362 195.771,259.867 196.267 M294.400 199.800 C 294.400 201.010,294.580 202.000,294.800 202.000 C 295.020 202.000,295.200 201.010,295.200 199.800 C 295.200 198.590,295.020 197.600,294.800 197.600 C 294.580 197.600,294.400 198.590,294.400 199.800 M392.138 219.817 C 391.766 220.787,392.285 220.962,392.782 220.034 C 393.091 219.456,393.097 219.200,392.802 219.200 C 392.567 219.200,392.268 219.478,392.138 219.817 M145.600 224.679 C 145.600 225.215,146.700 226.634,146.933 226.399 C 147.042 226.290,146.787 225.775,146.366 225.256 C 145.945 224.736,145.600 224.477,145.600 224.679 M385.256 230.255 C 384.776 231.327,384.786 231.358,385.418 230.739 C 385.789 230.376,386.020 229.860,385.931 229.594 C 385.842 229.327,385.539 229.625,385.256 230.255 M115.742 242.275 C 116.507 243.769,117.214 244.339,116.923 243.226 C 116.811 242.800,116.354 242.125,115.905 241.726 C 115.092 241.002,115.092 241.003,115.742 242.275 M368.792 248.210 C 368.514 248.545,368.366 248.900,368.464 248.998 C 368.562 249.096,368.946 248.821,369.317 248.388 C 369.689 247.955,369.836 247.600,369.645 247.600 C 369.454 247.600,369.070 247.874,368.792 248.210 M229.200 250.000 C 228.693 250.440,228.457 250.800,228.677 250.800 C 228.896 250.800,229.402 250.440,229.800 250.000 C 230.198 249.560,230.434 249.200,230.323 249.200 C 230.213 249.200,229.707 249.560,229.200 250.000 M34.449 252.417 C 34.806 252.958,35.315 253.400,35.581 253.400 C 35.847 253.400,36.318 253.747,36.628 254.171 C 36.938 254.595,37.284 254.849,37.397 254.736 C 37.604 254.529,35.512 252.480,34.400 251.801 C 33.902 251.497,33.911 251.602,34.449 252.417 M184.800 256.000 C 184.800 256.220,185.070 256.400,185.400 256.400 C 185.730 256.400,186.000 256.220,186.000 256.000 C 186.000 255.780,185.730 255.600,185.400 255.600 C 185.070 255.600,184.800 255.780,184.800 256.000 M39.600 256.724 C 39.600 257.148,41.145 258.597,41.349 258.364 C 41.428 258.274,41.067 257.789,40.546 257.286 C 40.026 256.783,39.600 256.530,39.600 256.724 M317.000 287.627 C 316.340 288.050,316.042 288.397,316.337 288.398 C 316.632 288.399,317.331 288.040,317.891 287.600 C 319.174 286.591,318.590 286.608,317.000 287.627 " stroke="none" fill="#f4f4f4" fill-rule="evenodd"></path></g></svg>